<svg xmlns="http://www.w3.org/2000/svg" xmlns:xlink="http://www.w3.org/1999/xlink" width="500" zoomAndPan="magnify" viewBox="0 0 375 149.999998" height="200" preserveAspectRatio="xMidYMid meet" version="1.0"><defs><g/><clipPath id="id1"><path d="M 9.335938 25.878906 L 104 25.878906 L 104 121.980469 L 9.335938 121.980469 Z M 9.335938 25.878906 " clip-rule="nonzero"/></clipPath></defs><path fill="rgb(100%, 100%, 100%)" d="M 45.800781 73.929688 C 45.800781 74.679688 45.875 75.425781 46.019531 76.160156 C 46.167969 76.898438 46.386719 77.613281 46.671875 78.304688 C 46.960938 79 47.316406 79.660156 47.734375 80.28125 C 48.152344 80.90625 48.628906 81.484375 49.160156 82.015625 C 49.695312 82.546875 50.273438 83.019531 50.902344 83.4375 C 51.527344 83.855469 52.1875 84.207031 52.882812 84.496094 C 53.582031 84.78125 54.296875 85 55.039062 85.144531 C 55.777344 85.292969 56.523438 85.363281 57.277344 85.363281 C 58.03125 85.363281 58.777344 85.292969 59.515625 85.144531 C 60.253906 85 60.972656 84.78125 61.667969 84.496094 C 62.363281 84.207031 63.027344 83.855469 63.652344 83.4375 C 64.277344 83.019531 64.859375 82.546875 65.390625 82.015625 C 65.925781 81.484375 66.398438 80.90625 66.820312 80.28125 C 67.238281 79.660156 67.589844 79 67.878906 78.304688 C 68.167969 77.613281 68.386719 76.898438 68.53125 76.160156 C 68.679688 75.425781 68.753906 74.679688 68.753906 73.929688 C 68.753906 73.179688 68.679688 72.433594 68.53125 71.699219 C 68.386719 70.960938 68.167969 70.246094 67.878906 69.554688 C 67.589844 68.859375 67.238281 68.199219 66.820312 67.574219 C 66.398438 66.953125 65.925781 66.375 65.390625 65.84375 C 64.859375 65.3125 64.277344 64.839844 63.652344 64.421875 C 63.027344 64.003906 62.363281 63.652344 61.667969 63.363281 C 60.972656 63.078125 60.253906 62.859375 59.515625 62.714844 C 58.777344 62.566406 58.03125 62.492188 57.277344 62.492188 C 56.523438 62.492188 55.777344 62.566406 55.039062 62.714844 C 54.296875 62.859375 53.582031 63.078125 52.882812 63.363281 C 52.1875 63.652344 51.527344 64.003906 50.902344 64.421875 C 50.273438 64.839844 49.695312 65.3125 49.160156 65.84375 C 48.628906 66.375 48.152344 66.953125 47.734375 67.574219 C 47.316406 68.199219 46.960938 68.859375 46.671875 69.554688 C 46.386719 70.246094 46.167969 70.960938 46.019531 71.699219 C 45.875 72.433594 45.800781 73.179688 45.800781 73.929688 Z M 45.800781 73.929688 " fill-opacity="1" fill-rule="nonzero"/><g clip-path="url(#id1)"><path fill="rgb(100%, 100%, 100%)" d="M 57.277344 25.90625 C 79.734375 25.90625 98.597656 41.214844 103.949219 61.921875 C 104 62.109375 104.027344 62.300781 104.03125 62.492188 C 104.03125 63.75 103.003906 64.78125 101.734375 64.78125 L 82.300781 64.78125 C 81.851562 64.78125 81.4375 64.660156 81.0625 64.417969 C 80.683594 64.175781 80.402344 63.847656 80.21875 63.441406 C 80.21875 63.441406 80.191406 63.386719 80.179688 63.355469 C 76.171875 54.742188 67.425781 48.765625 57.269531 48.765625 C 43.324219 48.765625 32.019531 60.027344 32.019531 73.921875 C 32.019531 87.816406 43.320312 99.074219 57.265625 99.074219 C 67.414062 99.074219 76.164062 93.097656 80.175781 84.484375 C 80.1875 84.457031 80.214844 84.402344 80.214844 84.402344 C 80.585938 83.589844 81.402344 83.0625 82.296875 83.0625 L 101.730469 83.0625 C 103 83.0625 104.027344 84.082031 104.027344 85.347656 C 104.023438 85.542969 103.996094 85.730469 103.945312 85.917969 C 98.59375 106.628906 79.722656 121.933594 57.273438 121.933594 C 30.652344 121.929688 9.039062 100.433594 9.039062 73.914062 C 9.039062 47.390625 30.617188 25.890625 57.230469 25.890625 Z M 57.277344 25.90625 " fill-opacity="1" fill-rule="nonzero"/></g><g fill="rgb(100%, 100%, 100%)" fill-opacity="1"><g transform="translate(134.779565, 88.541987)"><g><path d="M 31.492188 0 L 31.492188 -6 L 7.5 -6 L 7.5 -23.996094 L 31.492188 -23.996094 L 31.492188 -29.992188 L 7.5 -29.992188 C 4.199219 -29.992188 1.5 -27.292969 1.5 -23.996094 L 1.5 -6 C 1.5 -2.699219 4.199219 0 7.5 0 Z M 31.492188 0 "/></g></g></g><g fill="rgb(100%, 100%, 100%)" fill-opacity="1"><g transform="translate(167.769309, 88.541987)"><g><path d="M 31.492188 -29.992188 L 7.5 -29.992188 C 4.199219 -29.992188 1.5 -27.292969 1.5 -23.996094 L 1.5 -6 C 1.5 -2.699219 4.199219 0 7.5 0 L 31.492188 0 L 31.492188 -6 L 7.5 -6 L 7.5 -11.996094 L 31.492188 -11.996094 L 31.492188 -17.996094 L 7.5 -17.996094 L 7.5 -23.996094 L 31.492188 -23.996094 Z M 31.492188 -29.992188 "/></g></g></g><g fill="rgb(100%, 100%, 100%)" fill-opacity="1"><g transform="translate(200.759053, 88.541987)"><g><path d="M 31.492188 -23.996094 C 31.492188 -27.292969 28.792969 -29.992188 25.496094 -29.992188 L 1.5 -29.992188 L 1.5 0 L 7.5 0 L 7.5 -11.996094 L 11.023438 -11.996094 L 22.121094 -0.898438 C 22.71875 -0.300781 23.46875 0 24.296875 0 L 31.492188 0 L 31.492188 -6 L 25.496094 -6 L 19.496094 -11.996094 L 25.496094 -11.996094 C 28.792969 -11.996094 31.492188 -14.695312 31.492188 -17.996094 Z M 25.496094 -23.996094 L 25.496094 -17.996094 L 7.5 -17.996094 L 7.5 -23.996094 Z M 25.496094 -23.996094 "/></g></g></g><g fill="rgb(100%, 100%, 100%)" fill-opacity="1"><g transform="translate(233.748797, 88.541987)"><g><path d="M 31.492188 -29.992188 L 1.5 -29.992188 L 1.5 -23.996094 L 13.496094 -23.996094 L 13.496094 0 L 19.496094 0 L 19.496094 -23.996094 L 31.492188 -23.996094 Z M 31.492188 -29.992188 "/></g></g></g><g fill="rgb(100%, 100%, 100%)" fill-opacity="1"><g transform="translate(266.738541, 88.541987)"><g><path d="M 31.492188 0 L 31.492188 -6 L 7.5 -6 L 7.5 -23.996094 L 31.492188 -23.996094 L 31.492188 -29.992188 L 7.5 -29.992188 C 4.199219 -29.992188 1.5 -27.292969 1.5 -23.996094 L 1.5 -6 C 1.5 -2.699219 4.199219 0 7.5 0 Z M 31.492188 0 "/></g></g></g><g fill="rgb(100%, 100%, 100%)" fill-opacity="1"><g transform="translate(299.728285, 88.541987)"><g><path d="M 31.492188 -29.992188 L 7.5 -29.992188 C 4.199219 -29.992188 1.5 -27.292969 1.5 -23.996094 L 1.5 -6 C 1.5 -2.699219 4.199219 0 7.5 0 L 31.492188 0 L 31.492188 -6 L 7.5 -6 L 7.5 -11.996094 L 31.492188 -11.996094 L 31.492188 -17.996094 L 7.5 -17.996094 L 7.5 -23.996094 L 31.492188 -23.996094 Z M 31.492188 -29.992188 "/></g></g></g><g fill="rgb(100%, 100%, 100%)" fill-opacity="1"><g transform="translate(332.718029, 88.541987)"><g><path d="M 31.492188 -23.996094 C 31.492188 -27.292969 28.792969 -29.992188 25.496094 -29.992188 L 1.5 -29.992188 L 1.5 0 L 7.5 0 L 7.5 -11.996094 L 11.023438 -11.996094 L 22.121094 -0.898438 C 22.71875 -0.300781 23.46875 0 24.296875 0 L 31.492188 0 L 31.492188 -6 L 25.496094 -6 L 19.496094 -11.996094 L 25.496094 -11.996094 C 28.792969 -11.996094 31.492188 -14.695312 31.492188 -17.996094 Z M 25.496094 -23.996094 L 25.496094 -17.996094 L 7.5 -17.996094 L 7.5 -23.996094 Z M 25.496094 -23.996094 "/></g></g></g></svg>